<?xml version="1.0" standalone="no"?>
<!DOCTYPE svg PUBLIC "-//W3C//DTD SVG 20010904//EN"
 "http://www.w3.org/TR/2001/REC-SVG-20010904/DTD/svg10.dtd">
<svg version="1.0" xmlns="http://www.w3.org/2000/svg"
 width="816.000000pt" height="855.000000pt" viewBox="0 0 816.000000 855.000000"
 preserveAspectRatio="xMidYMid meet">

<g transform="translate(0.000000,855.000000) scale(0.100000,-0.100000)"
fill="#000000" stroke="none">
<path d="M0 4275 l0 -4275 4080 0 4080 0 0 4275 0 4275 -4080 0 -4080 0 0
-4275z m4540 3250 c611 -82 1133 -301 1618 -677 142 -111 407 -374 524 -523
410 -520 640 -1103 697 -1770 20 -229 12 -464 -25 -732 l-17 -123 -1599 0
-1598 0 0 600 0 600 970 0 c662 0 970 3 970 10 0 24 -96 252 -143 340 -269
505 -747 882 -1292 1019 -139 35 -324 61 -431 61 l-74 0 0 -305 0 -305 -47 0
c-69 0 -224 -26 -323 -55 -513 -146 -899 -566 -1011 -1098 -29 -135 -31 -388
-6 -525 111 -591 543 -1031 1138 -1159 119 -25 429 -25 548 0 247 53 492 171
650 313 27 24 53 44 58 44 4 0 202 -194 438 -431 l430 -430 -65 -61 c-439
-406 -1046 -655 -1669 -684 l-141 -7 0 -290 0 -290 -141 7 c-688 32 -1319 266
-1869 692 -144 111 -429 395 -536 534 -414 536 -633 1095 -694 1770 -55 618
101 1310 420 1866 149 259 306 462 534 689 560 557 1240 866 2066 939 97 9
510 -4 620 -19z"/>
</g>
</svg>
