<?xml version="1.0" encoding="UTF-8"?>
<!-- Generator: visioncortex VTracer 0.6.3 -->
<svg version="1.1" xmlns="http://www.w3.org/2000/svg" width="1221" height="1280">
<path d="M0 0 C402.93 0 805.86 0 1221 0 C1221 422.4 1221 844.8 1221 1280 C818.07 1280 415.14 1280 0 1280 C0 857.6 0 435.2 0 0 Z " fill="#003893" transform="translate(0,0)"/>
<path d="M0 0 C1.18 -0 2.37 -0 3.59 -0 C6.08 -0 8.58 -0 11.07 0 C14.86 0.01 18.66 0 22.45 -0 C24.88 -0 27.32 -0 29.75 0 C30.87 -0 32 -0 33.15 -0.01 C38.93 0.01 44.59 0.23 50.33 0.91 C53.39 1.23 56.43 1.19 59.5 1.13 C61.48 1.1 63.46 1.09 65.44 1.13 C65.77 1.46 66.1 1.79 66.44 2.13 C73.82 3.64 80.94 4.26 88.44 4.13 C88.77 4.46 89.1 4.79 89.44 5.13 C91.05 5.48 92.67 5.77 94.29 6.04 C95.29 6.2 96.29 6.37 97.31 6.54 C98.37 6.72 99.42 6.89 100.5 7.07 C107.24 8.18 113.84 9.4 120.44 11.13 C122 11.5 123.55 11.86 125.11 12.21 C137.39 15.03 149.44 18.32 161.44 22.13 C162.82 22.56 162.82 22.56 164.22 23 C225.28 42.25 281.64 73.96 330.13 115.7 C330.75 116.23 331.37 116.76 332 117.3 C335.77 120.57 339.34 123.96 342.82 127.53 C344.48 129.17 346.22 130.69 348 132.2 C356.38 139.43 364.34 147.44 371.48 155.89 C373.17 157.82 374.89 159.68 376.65 161.53 C382.95 168.14 388.89 174.71 394.24 182.12 C396.25 184.87 398.33 187.53 400.47 190.19 C406.11 197.22 411.19 204.49 416.09 212.05 C417.52 214.25 418.97 216.43 420.43 218.61 C432.65 237 444.17 256.07 453.44 276.13 C453.94 277.2 454.44 278.28 454.95 279.38 C456.4 282.51 457.83 285.64 459.26 288.78 C460.1 290.63 460.94 292.47 461.79 294.32 C465.12 301.73 467.91 309.16 470.38 316.9 C471.27 319.62 472.26 322.24 473.38 324.88 C478.11 336.43 481.37 348.62 484.69 360.63 C484.94 361.52 485.18 362.4 485.44 363.31 C486.94 368.83 488.08 374.35 489 380 C489.23 382.11 489.23 382.11 490.44 383.13 C492.48 391.55 493.82 400.14 495.13 408.7 C495.33 409.96 495.33 409.96 495.53 411.25 C496.17 415.59 496.59 419.73 496.44 424.13 C497.1 424.13 497.76 424.13 498.44 424.13 C498.11 425.12 497.78 426.11 497.44 427.13 C497.69 429.27 498.02 431.39 498.38 433.51 C499.45 440.44 499.65 447.13 499.44 454.13 C500.1 454.13 500.76 454.13 501.44 454.13 C501.28 454.84 501.12 455.56 500.95 456.29 C500.44 459.15 500.33 461.74 500.34 464.64 C500.35 465.72 500.35 466.79 500.35 467.91 C500.36 469.06 500.37 470.22 500.38 471.41 C500.38 472.6 500.39 473.8 500.39 475.03 C500.41 480.15 500.43 485.27 500.46 490.38 C500.48 494.12 500.49 497.86 500.5 501.59 C500.51 502.74 500.52 503.9 500.53 505.08 C500.55 510.56 500.37 515.74 499.44 521.13 C499.45 522.95 499.49 524.76 499.57 526.57 C499.63 533.21 498.9 539.67 498.07 546.26 C497.94 547.26 497.81 548.26 497.68 549.29 C496.92 555.14 495.98 560.94 494.88 566.74 C494.31 569.86 493.86 572.99 493.44 576.13 C489.79 577.35 486.44 577.27 482.64 577.26 C481.83 577.26 481.02 577.26 480.19 577.26 C477.46 577.26 474.74 577.26 472.01 577.25 C470.04 577.25 468.08 577.25 466.11 577.26 C460.69 577.26 455.27 577.25 449.85 577.25 C444.01 577.24 438.17 577.25 432.34 577.25 C422.21 577.25 412.09 577.24 401.97 577.24 C387.34 577.23 372.7 577.23 358.07 577.23 C334.33 577.22 310.59 577.22 286.85 577.21 C263.78 577.2 240.71 577.19 217.65 577.19 C216.93 577.19 216.22 577.19 215.49 577.19 C208.35 577.19 201.22 577.18 194.08 577.18 C179.54 577.18 165 577.18 150.46 577.18 C149.45 577.17 149.45 577.17 148.43 577.17 C103.77 577.17 59.1 577.15 14.44 577.13 C14.42 553.68 14.4 530.23 14.39 506.78 C14.38 495.89 14.38 485 14.37 474.11 C14.36 464.63 14.35 455.14 14.35 445.65 C14.35 440.63 14.34 435.6 14.34 430.57 C14.33 425.85 14.33 421.12 14.33 416.4 C14.33 414.66 14.33 412.92 14.32 411.18 C14.32 408.82 14.32 406.45 14.32 404.09 C14.32 403.04 14.32 403.04 14.31 401.97 C14.33 397.25 14.33 397.25 15.44 396.13 C16.98 396.04 18.52 396.01 20.06 396.01 C21.07 396.01 22.07 396.01 23.11 396 C24.23 396.01 25.34 396.01 26.5 396.01 C28.26 396.01 28.26 396.01 30.06 396.01 C33.34 396.01 36.62 396.01 39.91 396.02 C43.44 396.02 46.97 396.02 50.51 396.02 C56.63 396.02 62.76 396.02 68.88 396.03 C77.74 396.04 86.6 396.04 95.46 396.04 C109.83 396.04 124.19 396.05 138.56 396.06 C152.53 396.07 166.49 396.07 180.45 396.08 C181.31 396.08 182.17 396.08 183.06 396.08 C187.37 396.08 191.68 396.08 196 396.08 C231.81 396.09 267.63 396.11 303.44 396.13 C302.83 393.93 302.21 391.72 301.59 389.52 C301.25 388.29 300.91 387.06 300.55 385.8 C298.91 380.39 296.75 375.28 294.44 370.13 C294.06 369.27 293.68 368.4 293.29 367.5 C284.8 348.38 274.95 330.13 262.82 313.07 C261.46 311.16 260.11 309.23 258.77 307.3 C254.31 300.93 249.7 294.86 244.44 289.13 C243.38 287.91 242.31 286.68 241.25 285.45 C229.25 271.78 216.73 259.45 202.44 248.13 C201.46 247.34 200.47 246.55 199.46 245.74 C186.65 235.57 172.77 227 158.44 219.13 C157.82 218.79 157.2 218.45 156.56 218.1 C143.03 210.69 129.46 204.91 114.87 199.96 C112.7 199.22 110.54 198.47 108.38 197.71 C96.63 193.67 84.75 190.69 72.57 188.32 C71.88 188.18 71.2 188.05 70.49 187.91 C66.88 187.12 66.88 187.12 63.44 188.13 C63.44 187.47 63.44 186.81 63.44 186.13 C62.22 186.17 61.01 186.22 59.75 186.26 C54.51 186.28 49.51 185.41 44.36 184.47 C41.64 184.16 39.99 184.25 37.44 185.13 C37.44 184.47 37.44 183.81 37.44 183.13 C36.82 183.14 36.19 183.14 35.55 183.15 C32.72 183.17 29.89 183.18 27.07 183.2 C26.08 183.2 25.1 183.21 24.08 183.22 C22.67 183.23 22.67 183.23 21.23 183.23 C20.36 183.24 19.49 183.24 18.6 183.25 C16.44 183.13 16.44 183.13 14.44 182.13 C14.11 212.16 13.78 242.19 13.44 273.13 C9.81 273.46 6.18 273.79 2.44 274.13 C1.12 274.46 -0.2 274.79 -1.56 275.13 C-3.45 275.31 -5.35 275.45 -7.25 275.57 C-11.66 275.92 -15.82 276.49 -20.12 277.55 C-21.92 277.98 -23.74 278.36 -25.56 278.72 C-40.01 281.56 -54.16 286.01 -67.56 292.13 C-68.28 292.46 -68.99 292.78 -69.73 293.11 C-79.44 297.52 -88.77 302.04 -97.56 308.13 C-99.07 309.15 -99.07 309.15 -100.62 310.18 C-111.42 317.5 -122.23 325.14 -131.11 334.77 C-132.56 336.13 -132.56 336.13 -134.56 336.13 C-134.82 336.71 -135.07 337.28 -135.34 337.87 C-136.67 340.34 -138.21 342.27 -140.06 344.38 C-140.67 345.09 -141.28 345.8 -141.9 346.52 C-143.56 348.13 -143.56 348.13 -145.56 348.13 C-145.79 348.66 -146.01 349.18 -146.25 349.72 C-147.65 352.3 -149.31 354.57 -151.09 356.9 C-171.79 384.17 -184.72 414.45 -192.04 447.78 C-192.39 449.38 -192.76 450.98 -193.14 452.58 C-193.32 453.37 -193.5 454.16 -193.69 454.96 C-193.94 456.01 -193.94 456.01 -194.19 457.07 C-194.79 460.43 -194.62 463.73 -194.56 467.13 C-194.89 467.79 -195.22 468.45 -195.56 469.13 C-195.56 470.29 -195.56 471.44 -195.56 472.63 C-195.56 476.13 -195.56 476.13 -196.56 478.13 C-196.65 479.73 -196.69 481.33 -196.69 482.93 C-196.69 484.37 -196.69 484.37 -196.7 485.84 C-196.69 486.84 -196.69 487.85 -196.68 488.88 C-196.69 489.87 -196.69 490.86 -196.7 491.88 C-196.69 496.75 -196.54 501.34 -195.56 506.13 C-195.38 507.55 -195.21 508.96 -195.06 510.38 C-194.93 511.54 -194.93 511.54 -194.8 512.71 C-194.64 514.35 -194.49 515.98 -194.34 517.62 C-194.23 518.86 -194.23 518.86 -194.12 520.13 C-194.06 520.88 -194 521.62 -193.94 522.38 C-192.75 531.01 -190.12 539.31 -187.62 547.63 C-187.1 549.39 -187.1 549.39 -186.57 551.18 C-180.72 570.79 -172.84 588.47 -161.45 605.54 C-158.56 609.92 -158.56 609.92 -158.56 612.13 C-157.9 612.13 -157.24 612.13 -156.56 612.13 C-154.83 614.25 -154.83 614.25 -152.93 617.01 C-151.99 618.37 -151.99 618.37 -151.02 619.75 C-149.56 622.13 -149.56 622.13 -149.56 624.13 C-148.98 624.34 -148.4 624.55 -147.81 624.76 C-145.28 626.3 -144.34 627.96 -142.81 630.44 C-140.83 633.12 -138.26 635.06 -135.71 637.2 C-132.65 639.95 -130.05 643.05 -127.42 646.21 C-125.56 648.13 -124.01 649.11 -121.56 650.13 C-121.56 650.79 -121.56 651.45 -121.56 652.13 C-120.9 652.34 -120.24 652.55 -119.56 652.76 C-115.49 654.62 -111.87 657.11 -108.56 660.13 C-108.56 660.79 -108.56 661.45 -108.56 662.13 C-107.46 662.53 -107.46 662.53 -106.35 662.93 C-103.53 664.15 -101.39 665.56 -98.93 667.38 C-93.68 671.12 -88.31 674.22 -82.56 677.13 C-81.56 677.64 -81.56 677.64 -80.54 678.16 C-49.44 693.78 -16.44 702.09 18.38 702.26 C19.17 702.26 19.97 702.27 20.78 702.27 C28.62 702.68 28.62 702.68 35.44 700.13 C37.34 700.11 39.23 700.14 41.13 700.2 C45.73 700.24 49.14 699.83 53.44 698.13 C58.11 697.22 61.79 697.11 66.44 698.13 C66.77 697.14 67.1 696.15 67.44 695.13 C69.24 694.95 69.24 694.95 71.07 694.76 C75.47 694.21 79.46 693.12 83.44 691.13 C84.41 690.99 85.38 690.84 86.38 690.7 C89.6 690.31 89.6 690.31 92.44 688.13 C94.1 687.78 95.77 687.44 97.44 687.13 C113.67 681.72 130.09 672.75 143.44 662.13 C144.1 661.8 144.76 661.47 145.44 661.13 C146.57 659.12 146.57 659.12 147.44 657.13 C148.76 657.13 150.08 657.13 151.44 657.13 C151.77 655.81 152.1 654.49 152.44 653.13 C153.37 653.01 153.37 653.01 154.32 652.88 C156.62 652.35 156.62 652.35 157.38 650.2 C158.44 648.13 158.44 648.13 160.82 646.88 C163.44 646.13 163.44 646.13 167.44 646.13 C169.88 648.07 169.88 648.07 172.66 650.84 C173.17 651.35 173.69 651.86 174.22 652.38 C175.94 654.09 177.65 655.81 179.35 657.53 C180.58 658.75 181.81 659.98 183.05 661.2 C186.39 664.53 189.72 667.87 193.06 671.21 C196.54 674.7 200.03 678.19 203.52 681.67 C209.39 687.53 215.24 693.39 221.09 699.26 C227.86 706.05 234.64 712.83 241.43 719.59 C247.26 725.4 253.07 731.21 258.88 737.03 C262.35 740.51 265.83 743.99 269.31 747.45 C272.58 750.72 275.85 753.99 279.1 757.27 C280.3 758.47 281.5 759.67 282.7 760.86 C284.35 762.5 285.98 764.14 287.6 765.79 C288.52 766.7 289.43 767.62 290.38 768.57 C292.52 771.23 293.27 772.74 293.44 776.13 C292.13 777.95 292.13 777.95 290.44 779.13 C289.78 779.13 289.12 779.13 288.44 779.13 C288.11 780.12 287.78 781.11 287.44 782.13 C285.98 783.64 285.98 783.64 284.07 785.26 C283.33 785.88 282.6 786.5 281.85 787.14 C281.05 787.8 280.26 788.45 279.44 789.13 C278.67 789.78 277.89 790.43 277.1 791.1 C274.23 793.47 271.35 795.81 268.44 798.13 C267.78 798.66 267.11 799.19 266.43 799.74 C256.94 807.3 247.34 814.45 237.14 821.02 C233.59 823.34 230.11 825.75 226.61 828.15 C222.01 831.03 217.23 833.57 212.44 836.13 C211.48 836.65 210.51 837.17 209.52 837.7 C196.76 844.53 183.98 850.91 170.53 856.27 C168.29 857.2 166.08 858.19 163.86 859.19 C160.04 860.91 156.18 862.33 152.19 863.63 C151.55 863.84 150.92 864.05 150.26 864.27 C144.98 865.99 139.67 867.62 134.35 869.23 C131.88 870 129.44 870.83 127 871.7 C122.01 873.39 116.88 874.38 111.73 875.45 C106.94 876.45 102.22 877.65 97.5 878.92 C95.93 879.34 95.93 879.34 94.32 879.76 C93.34 880.02 92.37 880.28 91.37 880.55 C88.31 881.16 85.55 881.2 82.44 881.13 C78.81 881.53 75.56 882.1 72.07 883.2 C68.38 884.15 65.41 884.23 61.64 884.14 C58.52 884.13 55.52 884.68 52.44 885.13 C50.11 885.13 47.77 885.13 45.44 885.13 C44.68 885.3 43.92 885.46 43.13 885.63 C39.61 886.29 36.22 886.16 32.65 886.07 C30.4 885.98 30.4 885.98 28.44 887.13 C23.82 887.13 19.2 887.13 14.44 887.13 C14.44 915.51 14.44 943.89 14.44 973.13 C11.69 974.51 9.62 974.15 6.56 974.01 C5.39 973.96 4.23 973.92 3.02 973.87 C1.8 973.81 0.58 973.75 -0.68 973.7 C-1.91 973.64 -3.15 973.59 -4.41 973.54 C-7.46 973.41 -10.51 973.27 -13.56 973.13 C-13.56 973.46 -13.56 973.79 -13.56 974.13 C-15.87 974.13 -18.18 974.13 -20.56 974.13 C-20.56 973.47 -20.56 972.81 -20.56 972.13 C-21.43 972.15 -21.43 972.15 -22.31 972.18 C-29.26 972.27 -36.03 971.7 -42.93 970.88 C-44.08 970.75 -45.22 970.61 -46.4 970.48 C-55.67 969.34 -64.75 967.68 -73.88 965.7 C-76.89 965.06 -79.91 964.46 -82.93 963.87 C-84.03 963.66 -85.13 963.44 -86.26 963.22 C-88.39 962.8 -90.51 962.38 -92.63 961.97 C-101.75 960.16 -110.75 958.13 -119.56 955.13 C-121.44 954.52 -123.31 953.9 -125.19 953.28 C-171.24 938.15 -171.24 938.15 -191.56 928.13 C-192.8 927.53 -192.8 927.53 -194.06 926.92 C-205.27 921.48 -216.2 915.77 -226.87 909.34 C-229.95 907.48 -233.07 905.75 -236.25 904.07 C-256.95 892.93 -276.52 878.14 -294.56 863.13 C-295.56 862.31 -296.56 861.48 -297.59 860.63 C-310.13 850.18 -321.9 838.98 -333.44 827.44 C-335.32 825.56 -337.2 823.69 -339.09 821.82 C-345.32 815.62 -351.25 809.39 -356.68 802.47 C-358.6 800.08 -360.64 797.86 -362.75 795.63 C-369.06 788.7 -374.43 781.01 -379.91 773.42 C-381.35 771.42 -382.8 769.44 -384.26 767.46 C-395.25 752.45 -404.79 736.53 -413.56 720.13 C-414.09 719.14 -414.63 718.15 -415.18 717.13 C-428.7 691.96 -439.35 666.16 -448.56 639.13 C-448.9 638.14 -449.24 637.15 -449.59 636.13 C-453.71 624.06 -456.87 611.98 -459.43 599.48 C-460.39 594.82 -461.53 590.23 -462.75 585.63 C-464.33 579.46 -465.34 573.36 -466.07 567.02 C-466.47 563.86 -466.96 560.76 -467.52 557.62 C-468.73 550.49 -469.43 543.33 -470.12 536.13 C-470.37 533.57 -470.62 531.01 -470.88 528.45 C-470.98 527.33 -471.09 526.21 -471.2 525.06 C-471.46 522.3 -471.46 522.3 -472.07 520.34 C-472.7 517.47 -472.69 514.77 -472.69 511.82 C-472.69 510.54 -472.69 509.26 -472.7 507.95 C-472.7 506.56 -472.69 505.17 -472.69 503.78 C-472.69 502.35 -472.69 500.92 -472.69 499.5 C-472.7 496.51 -472.69 493.53 -472.69 490.54 C-472.68 486.71 -472.69 482.88 -472.69 479.04 C-472.7 476.1 -472.7 473.15 -472.69 470.21 C-472.69 468.8 -472.69 467.38 -472.69 465.97 C-472.7 464 -472.69 462.03 -472.69 460.06 C-472.69 458.94 -472.69 457.81 -472.69 456.66 C-472.56 454.13 -472.56 454.13 -471.56 453.13 C-471.35 450.89 -471.19 448.64 -471.06 446.38 C-470.66 439.66 -470.66 439.66 -470.03 436.51 C-469.51 433.9 -469.5 431.54 -469.56 428.88 C-469.6 427.3 -469.61 425.72 -469.56 424.13 C-469.23 423.8 -468.9 423.47 -468.56 423.13 C-468.22 421.39 -467.95 419.63 -467.69 417.88 C-467.53 416.78 -467.37 415.69 -467.2 414.56 C-467.03 413.39 -466.86 412.22 -466.68 411.01 C-464.69 397.75 -462.48 384.83 -458.64 371.97 C-457.74 368.78 -456.96 365.6 -456.25 362.37 C-454.04 352.42 -451.03 342.84 -447.75 333.2 C-447.21 331.6 -446.67 330.01 -446.14 328.42 C-436.94 301.28 -436.94 301.28 -430.72 289.45 C-429.45 286.91 -428.41 284.33 -427.37 281.7 C-422.22 269.12 -415.3 257.21 -408.49 245.47 C-407.15 243.16 -405.83 240.84 -404.53 238.51 C-401.06 232.31 -397.45 226.34 -393.29 220.58 C-390.79 217.04 -388.51 213.36 -386.23 209.68 C-384.48 207.02 -382.56 204.6 -380.56 202.13 C-379.32 200.43 -378.09 198.72 -376.87 197.01 C-373.34 192.12 -369.61 187.44 -365.76 182.8 C-363.75 180.36 -361.81 177.88 -359.87 175.38 C-355.22 169.54 -350.07 164.17 -344.95 158.74 C-342.22 155.85 -339.56 152.92 -336.93 149.95 C-330 142.2 -322.66 134.77 -314.74 128.04 C-312.4 126 -310.14 123.9 -307.88 121.78 C-291.13 106.13 -291.13 106.13 -287.56 106.13 C-287.56 105.47 -287.56 104.81 -287.56 104.13 C-285.79 102.64 -285.79 102.64 -283.18 100.82 C-282.19 100.11 -281.19 99.41 -280.16 98.68 C-279.59 98.28 -279.03 97.88 -278.44 97.47 C-276.35 95.99 -274.28 94.48 -272.21 92.96 C-271.44 92.4 -270.67 91.84 -269.88 91.27 C-268.38 90.17 -266.87 89.07 -265.37 87.97 C-259.59 83.77 -253.62 79.91 -247.56 76.13 C-246.65 75.57 -245.74 75 -244.81 74.42 C-222.67 60.69 -199.69 48.02 -175.56 38.13 C-174.72 37.79 -173.88 37.44 -173.01 37.08 C-153.43 29.06 -133.36 21.59 -112.7 16.89 C-109.58 16.19 -109.58 16.19 -106.73 15.18 C-86.53 8.49 -64.79 5.62 -43.74 3.08 C-42.83 2.97 -41.92 2.86 -40.98 2.75 C-40.17 2.65 -39.36 2.56 -38.53 2.46 C-36.49 2.22 -36.49 2.22 -34.56 1.13 C-31.44 1.06 -28.33 1.14 -25.21 1.2 C-21.5 1.2 -21.5 1.2 -17.62 0.64 C-11.75 -0.03 -5.9 -0.01 0 0 Z " fill="#42AFFC" transform="translate(604.55859375,148.8671875)"/>
<path d="M0 0 C1.83 1.83 1.12 4.4 1.12 6.84 C1.12 7.67 1.12 8.51 1.11 9.38 C1.11 10.25 1.11 11.13 1.11 12.04 C1.11 14.95 1.11 17.87 1.1 20.79 C1.1 22.8 1.09 24.82 1.09 26.83 C1.09 32.15 1.08 37.47 1.07 42.79 C1.06 48.21 1.05 53.63 1.05 59.06 C1.04 69.7 1.02 80.35 1 91 C0.25 91.06 -0.5 91.12 -1.27 91.18 C-2.25 91.27 -3.24 91.35 -4.25 91.44 C-5.22 91.52 -6.2 91.6 -7.2 91.68 C-9.57 91.95 -11.71 92.39 -14 93 C-15.89 93.17 -17.79 93.32 -19.69 93.44 C-24.11 93.78 -28.26 94.35 -32.56 95.41 C-34.37 95.85 -36.18 96.23 -38 96.59 C-52.45 99.43 -66.6 103.88 -80 110 C-80.72 110.32 -81.43 110.65 -82.17 110.98 C-91.88 115.38 -101.22 119.91 -110 126 C-111.01 126.68 -112.02 127.35 -113.06 128.05 C-123.87 135.36 -134.67 143.01 -143.55 152.64 C-145 154 -145 154 -147 154 C-147.26 154.57 -147.52 155.14 -147.78 155.73 C-149.11 158.21 -150.65 160.13 -152.5 162.25 C-153.11 162.96 -153.72 163.66 -154.34 164.39 C-156 166 -156 166 -158 166 C-158.23 166.52 -158.46 167.05 -158.69 167.59 C-160.09 170.16 -161.76 172.43 -163.53 174.77 C-184.23 202.04 -197.16 232.32 -204.48 265.64 C-204.83 267.25 -205.2 268.85 -205.58 270.45 C-205.76 271.24 -205.94 272.02 -206.13 272.83 C-206.38 273.88 -206.38 273.88 -206.63 274.94 C-207.23 278.3 -207.06 281.59 -207 285 C-207.33 285.66 -207.66 286.32 -208 287 C-208 288.15 -208 289.31 -208 290.5 C-208 294 -208 294 -209 296 C-209.1 297.6 -209.13 299.2 -209.13 300.8 C-209.13 301.76 -209.14 302.71 -209.14 303.7 C-209.13 304.71 -209.13 305.71 -209.12 306.75 C-209.13 307.74 -209.13 308.73 -209.14 309.75 C-209.13 314.62 -208.98 319.21 -208 324 C-207.82 325.41 -207.65 326.83 -207.5 328.25 C-207.42 329.02 -207.33 329.79 -207.25 330.58 C-207.08 332.21 -206.93 333.85 -206.79 335.48 C-206.71 336.31 -206.64 337.14 -206.56 338 C-206.5 338.74 -206.44 339.49 -206.38 340.25 C-205.19 348.88 -202.56 357.17 -200.06 365.5 C-199.72 366.67 -199.37 367.84 -199.01 369.05 C-193.17 388.66 -185.28 406.34 -173.9 423.41 C-171 427.79 -171 427.79 -171 430 C-170.34 430 -169.68 430 -169 430 C-167.27 432.12 -167.27 432.12 -165.38 434.88 C-164.74 435.78 -164.11 436.68 -163.46 437.62 C-162 440 -162 440 -162 442 C-161.42 442.21 -160.85 442.41 -160.25 442.62 C-157.73 444.17 -156.78 445.83 -155.25 448.3 C-153.27 450.99 -150.71 452.93 -148.16 455.06 C-145.09 457.82 -142.49 460.92 -139.86 464.08 C-138 466 -136.45 466.98 -134 468 C-134 468.66 -134 469.32 -134 470 C-133.01 470.31 -133.01 470.31 -132 470.62 C-127.93 472.49 -124.31 474.98 -121 478 C-121 478.66 -121 479.32 -121 480 C-120.27 480.26 -119.54 480.53 -118.79 480.8 C-115.97 482.01 -113.83 483.42 -111.38 485.25 C-106.12 488.99 -100.75 492.09 -95 495 C-94 495.51 -94 495.51 -92.98 496.02 C-61.88 511.65 -28.89 519.95 5.94 520.12 C6.73 520.13 7.52 520.13 8.34 520.14 C16.18 520.55 16.18 520.55 23 518 C24.9 517.98 26.79 518.01 28.69 518.06 C33.29 518.11 36.69 517.7 41 516 C45.67 515.08 49.35 514.98 54 516 C54.33 515.01 54.66 514.02 55 513 C56.2 512.88 57.39 512.75 58.62 512.62 C63.03 512.08 67.02 510.99 71 509 C71.97 508.86 72.94 508.71 73.94 508.56 C77.16 508.18 77.16 508.18 80 506 C81.66 505.64 83.33 505.31 85 505 C101.23 499.58 117.65 490.62 131 480 C131.66 479.67 132.32 479.34 133 479 C134.13 476.98 134.13 476.98 135 475 C136.32 475 137.64 475 139 475 C139.33 473.68 139.66 472.36 140 471 C140.62 470.92 141.24 470.84 141.88 470.75 C144.17 470.22 144.17 470.22 144.94 468.06 C146 466 146 466 148.38 464.75 C151 464 151 464 155 464 C157.44 465.94 157.44 465.94 160.22 468.71 C160.73 469.22 161.25 469.73 161.77 470.25 C163.5 471.95 165.2 473.67 166.91 475.4 C168.14 476.62 169.37 477.84 170.6 479.07 C173.95 482.39 177.28 485.73 180.61 489.08 C184.1 492.57 187.59 496.05 191.08 499.54 C196.95 505.4 202.8 511.26 208.65 517.13 C215.42 523.92 222.2 530.69 228.99 537.46 C234.81 543.27 240.63 549.08 246.44 554.9 C249.91 558.38 253.39 561.85 256.87 565.32 C260.14 568.58 263.4 571.86 266.66 575.13 C267.86 576.34 269.06 577.54 270.26 578.73 C271.9 580.36 273.53 582.01 275.16 583.65 C276.08 584.57 276.99 585.49 277.94 586.43 C280.08 589.1 280.83 590.61 281 594 C279.69 595.81 279.69 595.81 278 597 C277.34 597 276.68 597 276 597 C275.67 597.99 275.34 598.98 275 600 C273.54 601.51 273.54 601.51 271.62 603.12 C270.89 603.75 270.16 604.37 269.41 605 C268.61 605.66 267.82 606.32 267 607 C266.23 607.65 265.45 608.3 264.66 608.96 C261.79 611.34 258.9 613.68 256 616 C255.34 616.53 254.67 617.06 253.99 617.61 C244.5 625.16 234.9 632.32 224.7 638.89 C221.15 641.2 217.67 643.62 214.17 646.02 C209.57 648.9 204.79 651.44 200 654 C199.04 654.52 198.07 655.04 197.08 655.57 C184.31 662.39 171.54 668.78 158.09 674.14 C155.85 675.06 153.64 676.06 151.42 677.06 C147.6 678.77 143.74 680.2 139.75 681.5 C139.11 681.71 138.48 681.92 137.82 682.13 C132.54 683.85 127.23 685.49 121.91 687.1 C119.44 687.86 117 688.7 114.56 689.56 C109.57 691.26 104.44 692.25 99.29 693.32 C94.5 694.31 89.78 695.52 85.06 696.79 C83.48 697.2 83.48 697.2 81.88 697.62 C80.42 698.02 80.42 698.02 78.93 698.41 C75.87 699.03 73.11 699.07 70 699 C66.37 699.4 63.11 699.96 59.62 701.06 C55.93 702.02 52.97 702.1 49.2 702 C46.08 702 43.08 702.54 40 703 C37.67 703 35.33 703 33 703 C32.24 703.16 31.47 703.33 30.69 703.5 C27.17 704.15 23.78 704.02 20.21 703.94 C17.96 703.85 17.96 703.85 16 705 C13.79 705.07 11.58 705.08 9.38 705.06 C8.19 705.05 7 705.04 5.77 705.04 C4.86 705.02 3.94 705.01 3 705 C1.43 701.85 1.83 698.48 1.81 695.02 C1.8 694.2 1.79 693.37 1.79 692.52 C1.77 690.73 1.75 688.93 1.74 687.14 C1.72 684.29 1.69 681.44 1.66 678.6 C1.6 672.54 1.55 666.49 1.5 660.44 C1.44 653.45 1.38 646.45 1.31 639.46 C1.28 636.67 1.26 633.87 1.24 631.08 C1.22 629.35 1.21 627.62 1.19 625.88 C1.19 625.12 1.18 624.35 1.18 623.56 C1.12 618.31 0.64 613.21 0 608 C-0.64 608.02 -1.28 608.04 -1.94 608.06 C-46.79 609.32 -94.43 598.29 -134.1 577 C-136.06 575.97 -138.03 574.98 -140.02 573.99 C-156.38 565.75 -171.6 555.3 -186 544 C-186.85 543.34 -187.71 542.67 -188.59 541.99 C-199.02 533.8 -208.56 524.67 -217.94 515.31 C-218.47 514.78 -219 514.26 -219.54 513.71 C-227.34 505.9 -234.57 497.98 -241 489 C-241.92 487.78 -242.84 486.57 -243.77 485.35 C-249.7 477.53 -255 469.48 -259.87 460.96 C-261.02 458.97 -262.19 456.99 -263.36 455 C-283.32 420.72 -296.71 381.49 -301 342 C-301.09 341.14 -301.19 340.27 -301.29 339.38 C-302.26 328.97 -302.19 318.53 -302.19 308.07 C-302.19 304.84 -302.21 301.6 -302.22 298.37 C-302.27 281.74 -301.02 265.77 -297.81 249.44 C-297.6 248.35 -297.39 247.26 -297.17 246.14 C-282.51 173.71 -241.43 106.34 -182 62 C-181.46 61.59 -180.92 61.19 -180.37 60.77 C-158.38 44.26 -134.43 31.3 -109 21 C-108.24 20.69 -107.48 20.38 -106.7 20.06 C-73.96 6.75 -35.5 -2.09 0 0 Z " fill="#FBCA06" transform="translate(617,331)"/>
<path d="M0 0 C1.66 3.32 1.13 7.03 1.11 10.67 C1.11 11.57 1.11 12.47 1.11 13.39 C1.11 16.37 1.11 19.34 1.1 22.32 C1.1 24.38 1.09 26.44 1.09 28.5 C1.09 33.93 1.08 39.36 1.07 44.79 C1.06 50.32 1.05 55.86 1.05 61.39 C1.04 72.26 1.02 83.13 1 94 C0.34 93.67 -0.32 93.34 -1 93 C-68.04 88.04 -142.63 120.43 -193 163 C-195.9 165.52 -198.73 168.11 -201.54 170.73 C-203.72 172.74 -205.94 174.69 -208.19 176.62 C-215.02 182.58 -221.12 189.11 -227 196 C-227.8 196.91 -228.6 197.82 -229.43 198.76 C-240.57 211.55 -250.48 225.33 -259 240 C-259.34 240.57 -259.68 241.15 -260.03 241.74 C-278.33 272.71 -290.89 306.15 -297.81 341.44 C-298.01 342.43 -298.2 343.42 -298.4 344.44 C-301.42 360.72 -302.33 376.67 -302.26 393.19 C-302.25 396.36 -302.26 399.53 -302.27 402.7 C-302.32 468.26 -279.19 534.33 -237.53 585.12 C-236.38 586.53 -235.25 587.95 -234.13 589.38 C-228.36 596.63 -222.11 603.23 -215.55 609.76 C-213.82 611.49 -212.11 613.23 -210.39 614.97 C-202.73 622.67 -194.68 629.49 -186 636 C-185.18 636.63 -184.35 637.25 -183.5 637.9 C-173.43 645.48 -163.01 652.37 -152.13 658.75 C-150.12 659.93 -148.12 661.13 -146.12 662.33 C-128.87 672.53 -110.05 679.92 -91 686 C-90.18 686.26 -89.37 686.53 -88.53 686.8 C-73.6 691.53 -58.43 694.47 -43 697 C-42.23 697.13 -41.46 697.26 -40.66 697.39 C-27.56 699.52 -14.24 699.63 -1 700 C0.59 706.12 1.28 711.78 1.23 718.1 C1.23 718.96 1.23 719.82 1.23 720.7 C1.23 723.51 1.21 726.32 1.2 729.13 C1.19 731.09 1.19 733.05 1.19 735.01 C1.18 740.14 1.16 745.28 1.14 750.41 C1.12 755.66 1.11 760.91 1.1 766.16 C1.08 776.44 1.04 786.72 1 797 C-2.34 796.85 -5.67 796.69 -9.01 796.54 C-9.95 796.5 -10.88 796.45 -11.85 796.41 C-19.55 796.05 -27.2 795.47 -34.88 794.69 C-36.79 794.49 -36.79 794.49 -38.74 794.29 C-65.99 791.37 -92.94 785.5 -119 777 C-119.78 776.75 -120.57 776.49 -121.38 776.23 C-166.63 761.47 -208.44 738.09 -245.44 708.25 C-246.88 707.09 -248.33 705.95 -249.79 704.8 C-261.92 695.12 -272.92 684.17 -283.94 673.25 C-284.81 672.39 -285.69 671.52 -286.59 670.64 C-292.18 665.06 -297.15 659.22 -302 653 C-303.56 651.16 -305.12 649.33 -306.69 647.5 C-316.86 635.32 -325.71 622.25 -333.95 608.7 C-335.37 606.41 -336.88 604.18 -338.38 601.94 C-348.15 586.58 -355.93 569.74 -363 553 C-363.55 551.7 -363.55 551.7 -364.11 550.38 C-373.23 528.65 -379.97 506.01 -385 483 C-385.32 481.77 -385.64 480.53 -385.97 479.26 C-386.96 475.32 -387.65 471.37 -388.25 467.35 C-388.41 466.31 -388.41 466.31 -388.57 465.24 C-388.8 463.77 -389.01 462.31 -389.23 460.85 C-389.56 458.64 -389.9 456.43 -390.23 454.22 C-393.55 432.23 -394.37 410.23 -394 388 C-393.99 387.11 -393.97 386.23 -393.96 385.31 C-393.34 350.69 -387.35 316.02 -377 283 C-376.77 282.26 -376.55 281.53 -376.31 280.77 C-369.28 258.02 -359.74 236.22 -349 215 C-348.53 214.08 -348.07 213.15 -347.59 212.2 C-334.04 185.66 -316.57 158.93 -296.09 137.23 C-294.36 135.38 -292.72 133.5 -291.08 131.58 C-286.15 125.93 -280.84 120.65 -275.54 115.36 C-273.76 113.57 -271.99 111.79 -270.22 110 C-263.46 103.2 -256.56 96.91 -249 91 C-247.83 90.06 -246.66 89.12 -245.5 88.17 C-242.02 85.42 -238.52 82.7 -235 80 C-234.36 79.51 -233.73 79.02 -233.07 78.52 C-194.73 49.3 -150.87 29.12 -105 15 C-104.05 14.71 -103.11 14.42 -102.13 14.11 C-85.15 8.94 -67.67 5.93 -50.14 3.32 C-48.18 3.03 -46.22 2.72 -44.26 2.41 C-29.53 0.14 -14.87 -0.15 0 0 Z " fill="#FBFDFD" transform="translate(618,239)"/>
<path d="M0 0 C156.42 0 312.84 0 474 0 C474 0.99 474 1.98 474 3 C317.58 3 161.16 3 0 3 C0 2.01 0 1.02 0 0 Z " fill="#2470C8" transform="translate(621,725)"/>
<path d="M0 0 C0.66 0 1.32 0 2 0 C2.07 11.96 2.12 23.92 2.16 35.88 C2.17 41.44 2.19 46.99 2.23 52.54 C2.26 57.9 2.28 63.25 2.28 68.61 C2.29 70.66 2.3 72.7 2.32 74.75 C2.34 77.61 2.34 80.47 2.34 83.33 C2.36 84.61 2.36 84.61 2.37 85.91 C2.36 88.27 2.36 88.27 2 92 C-1.53 94.35 -3.03 94.21 -7.19 94.12 C-8.27 94.11 -9.36 94.09 -10.48 94.07 C-11.31 94.05 -12.14 94.02 -13 94 C-12.67 93.01 -12.34 92.02 -12 91 C-8.37 91 -4.74 91 -1 91 C-1 89.89 -1 88.78 -1.01 87.63 C-1.03 77.19 -1.04 66.74 -1.05 56.29 C-1.06 50.92 -1.06 45.55 -1.08 40.18 C-1.09 35 -1.09 29.81 -1.09 24.63 C-1.1 22.65 -1.1 20.67 -1.11 18.69 C-1.11 15.93 -1.11 13.16 -1.11 10.4 C-1.12 9.57 -1.12 8.75 -1.12 7.9 C-1.11 2.23 -1.11 2.23 0 0 Z " fill="#676B4D" transform="translate(619,331)"/>
<path d="M0 0 C0 7.92 0 15.84 0 24 C-0.99 23.67 -1.98 23.34 -3 23 C-3 15.74 -3 8.48 -3 1 C-1 0 -1 0 0 0 Z " fill="#6B6D4B" transform="translate(410,626)"/>
<path d="M0 0 C3.33 1.11 3.66 1.57 5.48 4.38 C5.92 5.05 6.36 5.73 6.82 6.42 C7.27 7.13 7.72 7.83 8.19 8.56 C8.65 9.27 9.11 9.98 9.59 10.72 C10.74 12.47 11.87 14.24 13 16 C12.67 16.66 12.34 17.32 12 18 C11.34 16.68 10.68 15.36 10 14 C9.34 14 8.68 14 8 14 C6.53 11.88 5.19 9.78 3.88 7.56 C3.5 6.95 3.13 6.34 2.75 5.71 C0 1.16 0 1.16 0 0 Z " fill="#6B6D4B" transform="translate(438,747)"/>
<path d="M0 0 C0.66 0 1.32 0 2 0 C4.31 4.62 6.62 9.24 9 14 C8.01 14.5 8.01 14.5 7 15 C5.83 12.88 4.66 10.75 3.5 8.62 C3.17 8.02 2.83 7.42 2.49 6.8 C0 2.23 0 2.23 0 0 Z " fill="#616851" transform="translate(429,730)"/>
<path d="M0 0 C3.3 0 6.6 0 10 0 C10.33 0.99 10.66 1.98 11 3 C7.04 3 3.08 3 -1 3 C-0.67 2.01 -0.34 1.02 0 0 Z " fill="#676B4D" transform="translate(635,1034)"/>
<path d="M0 0 C1.46 -0.08 2.92 -0.14 4.38 -0.19 C5.19 -0.22 6 -0.26 6.84 -0.29 C7.55 -0.2 8.26 -0.1 9 0 C9.66 0.99 10.32 1.98 11 3 C7.04 3 3.08 3 -1 3 C-0.67 2.01 -0.34 1.02 0 0 Z " fill="#6B6D4B" transform="translate(607,422)"/>
</svg>
